<svg width="90" height="84" viewBox="0 0 90 84" fill="none" xmlns="http://www.w3.org/2000/svg">
<g id="Comercial/Delivery">
<g id="Icon">
<path fill-rule="evenodd" clip-rule="evenodd" d="M78.038 21.4468C78.038 16.7869 74.2604 13.0093 69.6005 13.0093H20.798C16.5164 12.8087 12.7699 15.8626 12.1032 20.0967C11.4364 24.3308 14.0632 28.3882 18.1992 29.5131V59.8881C18.1992 66.1378 23.2558 71.2095 29.5055 71.2281H60.8255C63.8389 71.2371 66.7319 70.0463 68.8659 67.9186C70.9999 65.791 72.1993 62.9015 72.1992 59.8881V29.5131C75.7004 28.391 78.0657 25.1233 78.038 21.4468ZM60.8592 66.1318H29.5392C27.8833 66.1318 26.2952 65.474 25.1242 64.3031C23.9533 63.1322 23.2955 61.544 23.2955 59.8881V29.8843H67.1705V59.8881C67.1706 61.5558 66.5035 63.1542 65.3179 64.3271C64.1324 65.5 62.5268 66.1499 60.8592 66.1318ZM20.798 24.8218H69.6005C71.4645 24.8218 72.9755 23.3108 72.9755 21.4468C72.9755 19.5829 71.4645 18.0718 69.6005 18.0718H20.798C18.934 18.0718 17.423 19.5829 17.423 21.4468C17.423 23.3108 18.934 24.8218 20.798 24.8218Z" fill="#E6AF2E"/>
<path d="M52.793 38.7606H37.6055C36.2075 38.7606 35.0742 39.8939 35.0742 41.2918C35.0742 42.6898 36.2075 43.8231 37.6055 43.8231H52.793C54.191 43.8231 55.3242 42.6898 55.3242 41.2918C55.3242 39.8939 54.191 38.7606 52.793 38.7606Z" fill="#E6AF2E"/>
</g>
</g>
</svg>
