<svg width="90" height="84" viewBox="0 0 90 84" fill="none" xmlns="http://www.w3.org/2000/svg">
<g id="Comercial/Delivery">
<g id="Icon">
<path fill-rule="evenodd" clip-rule="evenodd" d="M82.275 29.754L78.3375 26.0999C76.4612 24.339 73.9181 23.3276 71.25 23.2811H56.25V21.2627C56.25 15.9774 51.6329 11.6927 45.9375 11.6927H15C13.4467 11.6927 12.1875 12.8613 12.1875 14.3027C12.1875 15.7442 13.4467 16.9127 15 16.9127H45.825C48.4138 16.9127 50.5125 18.8603 50.5125 21.2627V43.2911C50.5125 44.7326 51.7717 45.9011 53.325 45.9011C54.8783 45.9011 56.1375 44.7326 56.1375 43.2911V28.5011H71.1375C72.3803 28.4966 73.5716 28.9614 74.4375 29.7887L78.375 33.2687C78.912 33.7854 79.299 34.42 79.5 35.1131H63.75C62.1967 35.1131 60.9375 36.2817 60.9375 37.7231C60.9375 39.1646 62.1967 40.3331 63.75 40.3331H79.6875V55.1231C79.7386 56.3067 79.2673 57.4584 78.3827 58.3122C77.498 59.166 76.2764 59.6481 75 59.6471H70.8375C69.9146 55.632 66.0927 52.762 61.6687 52.762C57.2448 52.762 53.4229 55.632 52.5 59.6471H32.475C31.4657 55.4969 27.3477 52.6485 22.7735 52.9365C18.1993 53.2246 14.5338 56.5632 14.1379 60.802C13.742 65.0407 16.734 68.9147 21.1866 69.9288C25.6392 70.9429 30.2238 68.7944 31.9875 64.8671H53.025C54.4867 68.0973 57.8936 70.1986 61.6687 70.1986C65.4439 70.1986 68.8508 68.0973 70.3125 64.8671H75C80.6954 64.8671 85.3125 60.5825 85.3125 55.2971V36.5399C85.3176 33.9922 84.2238 31.5485 82.275 29.754ZM23.325 64.3104C22.066 64.3673 20.8971 63.7056 20.3756 62.6406C19.8542 61.5757 20.0859 60.3233 20.9602 59.4808C21.8345 58.6382 23.1744 58.3761 24.3408 58.8195C25.5072 59.2629 26.2639 60.3219 26.25 61.4916C26.2511 63.0085 24.9585 64.2542 23.325 64.3104ZM58.8057 62.5406C59.2793 63.6112 60.4029 64.3103 61.65 64.3104C63.3337 64.3105 64.7045 63.0539 64.725 61.4916C64.7402 60.3343 64.0007 59.2832 62.853 58.8305C61.7052 58.3778 60.3765 58.6133 59.4893 59.4266C58.602 60.2399 58.332 61.47 58.8057 62.5406Z" fill="#E6AF2E"/>
<path d="M40.3125 31.3199C40.2923 29.8863 39.0449 28.7287 37.5 28.7099H7.5C5.9467 28.7099 4.6875 29.8785 4.6875 31.3199C4.6875 32.7614 5.9467 33.9299 7.5 33.9299H37.5C39.0449 33.9112 40.2923 32.7536 40.3125 31.3199Z" fill="#E6AF2E"/>
<path d="M37.5 39.1499H18.75C17.1967 39.1499 15.9375 40.3185 15.9375 41.7599C15.9375 43.2014 17.1967 44.3699 18.75 44.3699H37.5C39.0533 44.3699 40.3125 43.2014 40.3125 41.7599C40.3125 40.3185 39.0533 39.1499 37.5 39.1499Z" fill="#E6AF2E"/>
</g>
</g>
</svg>
