<svg width="90" height="84" viewBox="0 0 90 84" fill="none" xmlns="http://www.w3.org/2000/svg">
<g id="Comercial/Delivery">
<g id="Icon">
<path fill-rule="evenodd" clip-rule="evenodd" d="M70.1393 31.7164C70.7821 33.2828 72.3055 34.3076 73.9987 34.3125C76.2969 34.331 78.1501 36.1993 78.15 38.4975V45.72C78.15 48.0313 76.2763 49.905 73.965 49.905C72.2718 49.9099 70.7483 50.9347 70.1055 52.5011C69.4627 54.0676 69.8271 55.8671 71.0287 57.06C72.6408 58.7119 72.6408 61.3481 71.0287 63L65.9662 68.0625C64.3143 69.6745 61.6781 69.6745 60.0262 68.0625C59.2643 67.2552 58.2 66.8026 57.09 66.8137C55.9742 66.8047 54.9011 67.2417 54.1089 68.0275C53.3168 68.8133 52.8712 69.8829 52.8712 70.9988C52.8712 73.3101 50.9976 75.1838 48.6862 75.1838H41.4637C39.1524 75.1838 37.2787 73.3101 37.2787 70.9988C37.2788 69.8829 36.8332 68.8133 36.0411 68.0275C35.2489 67.2417 34.1758 66.8047 33.06 66.8137C31.95 66.8026 30.8857 67.2552 30.1237 68.0625C28.4718 69.6745 25.8356 69.6745 24.1837 68.0625L19.1212 63C17.5092 61.3481 17.5092 58.7119 19.1212 57.06C20.3229 55.8671 20.6873 54.0676 20.0445 52.5011C19.4016 50.9347 17.8782 49.9099 16.185 49.905C15.0751 49.905 14.0106 49.4641 13.2258 48.6792C12.4409 47.8944 12 46.8299 12 45.72V38.4975C12 36.1862 13.8737 34.3125 16.185 34.3125C17.8782 34.3076 19.4016 33.2828 20.0445 31.7164C20.6873 30.1499 20.3229 28.3504 19.1212 27.1575C17.5092 25.5056 17.5092 22.8694 19.1212 21.2175L24.1837 16.155C25.8356 14.543 28.4718 14.543 30.1237 16.155C30.8857 16.9623 31.95 17.4149 33.06 17.4038C34.1816 17.4128 35.26 16.9713 36.0531 16.1781C36.8463 15.385 37.2878 14.3066 37.2787 13.185C37.2787 10.8737 39.1524 9 41.4637 9H48.72C51.0313 9 52.905 10.8737 52.905 13.185C52.8959 14.3066 53.3375 15.385 54.1306 16.1781C54.9238 16.9713 56.0021 17.4128 57.1237 17.4038C58.2338 17.4149 59.2981 16.9623 60.06 16.155C61.7119 14.543 64.3481 14.543 66 16.155L71.0625 21.2175C72.6745 22.8694 72.6745 25.5056 71.0625 27.1575C69.8608 28.3504 69.4964 30.1499 70.1393 31.7164ZM65.325 50.5463C66.6425 47.334 69.6594 45.1399 73.1213 44.8763L73.02 39.3412C69.5957 39.041 66.6262 36.8529 65.325 33.6712C64.0505 30.4821 64.6341 26.8504 66.8438 24.2213L62.9625 20.34C61.3166 21.7184 59.2368 22.4714 57.09 22.4663C52.3071 22.4545 48.3104 18.8224 47.8425 14.0625H42.3075C41.8547 18.83 37.849 22.4703 33.06 22.4663C30.9131 22.4714 28.8334 21.7184 27.1875 20.34L23.4075 24.2213C25.5828 26.8705 26.1273 30.5004 24.825 33.6712C23.5238 36.8529 20.5543 39.041 17.13 39.3412V44.8763C20.5543 45.1765 23.5238 47.3646 24.825 50.5463C26.0995 53.7354 25.5159 57.3671 23.3062 59.9963L27.1875 63.8775C28.8334 62.4991 30.9131 61.7461 33.06 61.7513C37.8429 61.763 41.8396 65.3951 42.3075 70.155H47.8425C48.2645 65.3721 52.2887 61.7151 57.09 61.7513C59.2368 61.7461 61.3166 62.4991 62.9625 63.8775L66.7425 59.9963C64.5672 57.347 64.0227 53.7171 65.325 50.5463Z" fill="#E6AF2E"/>
<path fill-rule="evenodd" clip-rule="evenodd" d="M33.3975 42.1088C33.3975 35.6594 38.6257 30.4313 45.075 30.4313C48.1721 30.4313 51.1423 31.6616 53.3322 33.8515C55.5222 36.0415 56.7525 39.0117 56.7525 42.1088C56.7525 48.5581 51.5243 53.7863 45.075 53.7863C38.6257 53.7863 33.3975 48.5581 33.3975 42.1088ZM38.325 42.1087C38.325 45.8367 41.3471 48.8587 45.075 48.8587C48.8029 48.8587 51.825 45.8367 51.825 42.1087C51.825 38.3808 48.8029 35.3587 45.075 35.3587C41.3471 35.3587 38.325 38.3808 38.325 42.1087Z" fill="#E6AF2E"/>
</g>
</g>
</svg>
