<svg width="70" height="70" viewBox="0 0 70 70" fill="none" xmlns="http://www.w3.org/2000/svg">
<g id="to_up">
<circle id="Ellipse 1" cx="35" cy="35" r="35" fill="#E6AF2E"/>
<path id="Arrow 1" d="M33.5 56C33.5 56.8284 34.1716 57.5 35 57.5C35.8284 57.5 36.5 56.8284 36.5 56H33.5ZM36.0607 12.9393C35.4749 12.3536 34.5251 12.3536 33.9393 12.9393L24.3934 22.4853C23.8076 23.0711 23.8076 24.0208 24.3934 24.6066C24.9792 25.1924 25.9289 25.1924 26.5147 24.6066L35 16.1213L43.4853 24.6066C44.0711 25.1924 45.0208 25.1924 45.6066 24.6066C46.1924 24.0208 46.1924 23.0711 45.6066 22.4853L36.0607 12.9393ZM36.5 56V14H33.5V56H36.5Z" fill="#3D348B"/>
</g>
</svg>
